#!OML:ASF F:\VICON\USERDATA\INSTALL\rory3\rory3.ASF
:FULLY-SPECIFIED
:DEGREES
167
root -7.95354 15.6485 5.68645 -173.079 55.431 -169.427
lowerback 11.0911 0.487818 4.48479
upperback -0.571943 1.3509 0.997652
thorax -6.7635 0.536416 -1.70312
lowerneck -11.729 -7.68418 -12.0398
upperneck 28.2152 -9.25953 7.0655
head 12.1671 -4.26145 3.43951
rclavicle -1.07841e-014 1.98785e-015
rhumerus -30.0583 2.63373 -88.3862
rradius 33.4166
rwrist 5.9027
rhand -16.8751 12.7656
rfingers 7.12502
rthumb 9.35582 -17.0068
lclavicle -1.07841e-014 1.98785e-015
lhumerus -33.0003 10.2026 81.4577
lradius 27.1159
lwrist -0.395847
lhand -13.96 13.067
lfingers 7.12502
lthumb 12.1677 42.6931
rfemur -1.46814 5.19949 34.5168
rtibia 25.4786
rfoot -19.1183 -18.6617
rtoes 3.55485
lfemur -30.0682 -2.97453 -14.4863
ltibia 50.7459
lfoot -10.3617 8.23649
ltoes -16.1327
168
root -7.86033 15.6563 5.62834 -172.9 55.4091 -169.311
lowerback 10.9977 0.48066 4.55787
upperback -0.593717 1.34651 1.0043
thorax -6.73276 0.532121 -1.73495
lowerneck -11.6396 -7.64221 -12.0032
upperneck 27.985 -9.23466 7.11193
head 12.0535 -4.2479 3.45258
rclavicle -1.35671e-014 3.97569e-015
rhumerus -29.8513 2.59194 -88.5552
rradius 33.2642
rwrist 6.03411
rhand -16.898 12.8182
rfingers 7.12502
rthumb 9.33378 -16.9552
lclavicle -1.35671e-014 3.97569e-015
lhumerus -33.0578 10.4418 81.3457
lradius 26.8117
lwrist -0.649892
lhand -14.1366 12.7452
lfingers 7.12502
lthumb 11.9974 42.3813
rfemur -0.68861 5.14779 34.6428
rtibia 24.6404
rfoot -18.9577 -18.704
rtoes 2.99137
lfemur -30.301 -3.26567 -14.3199
ltibia 48.8255
lfoot -10.5309 8.61078
ltoes -14.2476
169
root -7.76398 15.6617 5.56954 -172.812 55.4208 -169.248
lowerback 10.9441 0.498943 4.54807
upperback -0.609476 1.36786 1.02029
thorax -6.71837 0.543252 -1.7152
lowerneck -11.6328 -7.62643 -12.1051
upperneck 27.9133 -9.25156 7.32343
head 12.0428 -4.24244 3.54662
rclavicle 6.50274e-014 -1.07344e-014
rhumerus -29.8371 2.79058 -88.7762
rradius 33.3583
rwrist 5.83742
rhand -16.7397 13.0622
rfingers 7.12502
rthumb 9.48654 -16.7042
lclavicle 6.50274e-014 -1.07344e-014
lhumerus -33.1199 11.0245 81.0111
lradius 26.508
lwrist -1.91856
lhand -13.2054 12.8187
lfingers 7.12502
lthumb 12.8952 42.4003
rfemur 0.219838 5.213 34.7741
rtibia 23.7329
rfoot -18.9735 -18.836
rtoes 2.46717
lfemur -30.4624 -3.60383 -14.1681
ltibia 46.8699
lfoot -10.6409 9.17689
ltoes -11.2396
170
root -7.66661 15.6651 5.50765 -172.709 55.479 -169.156
lowerback 10.8499 0.52886 4.5946
upperback -0.578648 1.40559 0.999956
thorax -6.62822 0.562262 -1.76689
lowerneck -11.7082 -7.62863 -12.2698
upperneck 27.8966 -9.32239 7.70764
head 12.0905 -4.24458 3.70814
rclavicle -7.07922e-014 -4.77083e-015
rhumerus -29.8371 3.00726 -89.0283
rradius 33.5847
rwrist 5.70657
rhand -16.5297 13.2426
rfingers 7.12502
rthumb 9.68915 -16.5146
lclavicle -7.07922e-014 -4.77083e-015
lhumerus -33.1483 11.0884 81.0002
lradius 26.4015
lwrist -1.86631
lhand -13.3767 13.1309
lfingers 7.12502
lthumb 12.73 42.7228
rfemur 1.16689 5.51967 34.9733
rtibia 22.8151
rfoot -18.859 -19.3
rtoes 1.74686
lfemur -30.5321 -3.88945 -14.0325
ltibia 44.883
lfoot -10.5972 9.8777
ltoes -9.60648
171
root -7.57048 15.6685 5.44333 -172.675 55.5564 -169.115
lowerback 10.7851 0.541011 4.6171
upperback -0.529218 1.42029 1.00666
thorax -6.53763 0.57204 -1.77322
lowerneck -11.73 -7.615 -12.39
upperneck 27.717 -9.34429 7.93753
head 12.0457 -4.2445 3.80775
rclavicle 6.49032e-014 -1.94809e-014
rhumerus -29.746 3.1572 -89.1871
rradius 33.68
rwrist 5.72621
rhand -16.7293 12.9912
rfingers 7.12502
rthumb 9.49656 -16.7748
lclavicle 6.49032e-014 -1.94809e-014
lhumerus -33.2453 10.627 81.4258
lradius 26.4045
lwrist -0.193977
lhand -14.8842 13.0457
lfingers 7.12502
lthumb 11.2765 42.7226
rfemur 2.11326 5.67771 35.1056
rtibia 21.905
rfoot -18.5635 -19.6769
rtoes 0.896567
lfemur -30.4173 -4.14734 -13.9787
ltibia 42.854
lfoot -10.5699 10.6948
ltoes -10.1545
172
root -7.47613 15.6745 5.37781 -172.625 55.6394 -169.036
lowerback 10.7977 0.561486 4.64738
upperback -0.500692 1.45563 1.05034
thorax -6.51277 0.590771 -1.74993
lowerneck -11.7807 -7.61011 -12.5001
upperneck 27.5318 -9.33788 8.02512
head 11.9933 -4.24798 3.85397
rclavicle -1.39634e-013 7.15625e-015
rhumerus -29.7084 3.44274 -89.3267
rradius 33.7974
rwrist 5.52035
rhand -17.0109 12.5965
rfingers 7.12502
rthumb 9.22483 -17.1817
lclavicle -1.39634e-013 7.15625e-015
lhumerus -33.3402 10.4854 81.609
lradius 26.2774
lwrist 0.258049
lhand -15.0738 12.8938
lfingers 7.12502
lthumb 11.0935 42.5806
rfemur 3.04672 5.57759 35.1682
rtibia 21.0174
rfoot -18.3005 -19.7202
rtoes 0.314146
lfemur -30.2643 -4.47594 -13.8692
ltibia 40.8334
lfoot -10.7289 11.5847
ltoes -9.85148
173
root -7.38057 15.6797 5.3114 -172.551 55.7773 -168.95
lowerback 10.7884 0.597363 4.64458
upperback -0.476077 1.50577 1.09462
thorax -6.4795 0.617901 -1.70936
lowerneck -11.8348 -7.5974 -12.5892
upperneck 27.3536 -9.31955 8.09594
head 11.9408 -4.24554 3.89221
rclavicle 6.96368e-014 3.18055e-015
rhumerus -29.7243 3.78592 -89.4925
rradius 33.9823
rwrist 5.22656
rhand -17.0018 12.2316
rfingers 7.12502
rthumb 9.23356 -17.5462
lclavicle 6.96368e-014 3.18055e-015
lhumerus -33.3946 11.3165 81.1978
lradius 25.9134
lwrist -1.4216
lhand -13.5913 12.7677
lfingers 7.12502
lthumb 12.5231 42.3724
rfemur 3.96274 5.40648 35.1962
rtibia 20.124
rfoot -17.996 -19.6904
rtoes -0.564837
lfemur -30.173 -4.84878 -13.687
ltibia 38.875
lfoot -11.0421 12.401
ltoes -9.1352
174
root -7.28407 15.6776 5.24292 -172.381 55.8982 -168.79
lowerback 10.7082 0.606633 4.71964
upperback -0.465578 1.52459 1.11744
thorax -6.4207 0.626877 -1.72879
lowerneck -11.8053 -7.5717 -12.5783
upperneck 27.1531 -9.30337 8.13353
head 11.8546 -4.23884 3.90259
rclavicle 4.20678e-014 2.38542e-015
rhumerus -29.7418 4.02369 -89.6859
rradius 34.0818
rwrist 5.04858
rhand -16.9803 12.154
rfingers 7.12502
rthumb 9.25434 -17.6229
lclavicle 4.20678e-014 2.38542e-015
lhumerus -33.522 11.6056 81.0971
lradius 25.7204
lwrist -1.7222
lhand -13.4873 12.7933
lfingers 7.12502
lthumb 12.6234 42.3919
rfemur 4.89054 5.20497 35.2521
rtibia 19.1768
rfoot -17.8128 -19.5222
rtoes -1.00789
lfemur -30.0208 -5.11533 -13.5168
ltibia 36.9879
lfoot -11.2391 13.1021
ltoes -9.21747
175
root -7.18725 15.6795 5.17292 -171.996 56.0509 -168.427
lowerback 10.6002 0.646791 4.91847
upperback -0.481112 1.60093 1.15922
thorax -6.36778 0.659969 -1.80631
lowerneck -11.7795 -7.57027 -12.5626
upperneck 26.9864 -9.3158 8.14894
head 11.7852 -4.2461 3.89994
rclavicle 6.62201e-014 -3.97569e-016
rhumerus -29.8046 4.2431 -89.8574
rradius 34.1613
rwrist 4.82361
rhand -16.8906 12.1246
rfingers 7.12502
rthumb 9.3409 -17.6485
lclavicle 6.62201e-014 -3.97569e-016
lhumerus -33.6439 11.3345 81.2991
lradius 25.5795
lwrist -1.02308
lhand -14.8812 12.8565
lfingers 7.12502
lthumb 11.2794 42.5332
rfemur 5.78784 5.10322 35.4113
rtibia 18.1947
rfoot -17.5269 -19.3755
rtoes -1.44453
lfemur -29.8604 -5.37639 -13.2145
ltibia 35.1725
lfoot -11.4123 13.8371
ltoes -8.61617
176
root -7.09095 15.6842 5.10345 -171.585 56.224 -168.065
lowerback 10.5064 0.697703 5.10595
upperback -0.507789 1.69013 1.19187
thorax -6.33344 0.698855 -1.88916
lowerneck -11.738 -7.56099 -12.5743
upperneck 26.7353 -9.32593 8.2095
head 11.6836 -4.25233 3.91764
rclavicle -3.5744e-014 0
rhumerus -29.8149 4.33778 -90.0436
rradius 34.1586
rwrist 4.75359
rhand -16.9608 11.9625
rfingers 7.12502
rthumb 9.27318 -17.8136
lclavicle -3.5744e-014 0
lhumerus -33.7824 11.6518 81.075
lradius 25.2885
lwrist -1.74658
lhand -14.9484 12.6774
lfingers 7.12502
lthumb 11.2145 42.3577
rfemur 6.63891 5.10617 35.5803
rtibia 17.2278
rfoot -17.1187 -19.3744
rtoes -2.13975
lfemur -29.7933 -5.8167 -12.806
ltibia 33.4169
lfoot -11.7076 14.6221
ltoes -7.13292
177
root -6.99387 15.6864 5.02944 -171.323 56.3774 -167.904
lowerback 10.3183 0.722781 5.2162
upperback -0.513733 1.72612 1.21021
thorax -6.22848 0.715998 -1.93294
lowerneck -11.6705 -7.52491 -12.6488
upperneck 26.4335 -9.28925 8.28461
head 11.5564 -4.24394 3.95802
rclavicle 7.76875e-014 3.57812e-015
rhumerus -29.8259 4.50807 -90.2063
rradius 34.152
rwrist 4.69374
rhand -17.0686 12.3876
rfingers 7.12502
rthumb 9.16914 -17.3931
lclavicle 7.76875e-014 3.57812e-015
lhumerus -33.9481 12.2472 80.7457
lradius 25.0025
lwrist -2.738
lhand -14.612 12.1224
lfingers 7.12502
lthumb 11.539 41.7848
rfemur 7.50726 5.00272 35.6005
rtibia 16.2504
rfoot -16.6582 -19.2845
rtoes -3.05293
lfemur -29.7353 -6.35595 -12.503
ltibia 31.7342
lfoot -12.1485 15.4373
ltoes -6.12455
178
root -6.89552 15.6896 4.95315 -171.166 56.5652 -167.834
lowerback 10.1568 0.756518 5.19984
upperback -0.511445 1.76239 1.26908
thorax -6.13434 0.738225 -1.86359
lowerneck -11.6601 -7.47699 -12.753
upperneck 26.2091 -9.21113 8.31966
head 11.4658 -4.22158 3.99495
rclavicle 3.17931e-014 7.55382e-015
rhumerus -29.8919 4.83151 -90.3099
rradius 34.2219
rwrist 4.54483
rhand -17.0248 12.628
rfingers 7.12502
rthumb 9.21138 -17.1508
lclavicle 3.17931e-014 7.55382e-015
lhumerus -34.1485 12.7762 80.5749
lradius 24.789
lwrist -3.44047
lhand -14.703 11.8304
lfingers 7.12502
lthumb 11.4512 41.4976
rfemur 8.4174 4.85606 35.5382
rtibia 15.2895
rfoot -16.3378 -19.0315
rtoes -3.51667
lfemur -29.6029 -6.97813 -12.2241
ltibia 30.1227
lfoot -12.6108 16.2971
ltoes -5.9148
179
root -6.79781 15.6952 4.87315 -170.918 56.7383 -167.64
lowerback 10.063 0.790907 5.26851
upperback -0.52589 1.81686 1.34314
thorax -6.09348 0.765545 -1.83034
lowerneck -11.7586 -7.45498 -12.8007
upperneck 26.078 -9.15933 8.30372
head 11.4305 -4.20753 3.99843
rclavicle 2.48232e-014 -1.49089e-014
rhumerus -29.9221 5.00073 -90.3437
rradius 34.1578
rwrist 4.59734
rhand -16.9067 11.9231
rfingers 7.12502
rthumb 9.3254 -17.8506
lclavicle 2.48232e-014 -1.49089e-014
lhumerus -34.3505 13.1297 80.496
lradius 24.6127
lwrist -3.96198
lhand -13.5159 12.3409
lfingers 7.12502
lthumb 12.5958 41.9412
rfemur 9.30337 4.68822 35.5326
rtibia 14.3682
rfoot -15.8493 -18.7669
rtoes -4.42105
lfemur -29.4687 -7.61937 -11.8435
ltibia 28.6252
lfoot -13.0871 16.9744
ltoes -5.30856
